<svg version="1.0" xmlns="http://www.w3.org/2000/svg" viewBox="0 0 200 200">
  <path
    fill="#ff828c"
    d="M83.5 16.4c-5.5 1.75-9.9 4.1-13.75 7.45-2.65 2.3-4.55 2.95-10 3.45-12.05 1.1-23.6 8.75-27.95 18.45-1.5 3.3-3 4.85-6.8 6.75C11.55 59.3 3.9 76.7 8.85 89.25c.8 2 .8 3.5 0 5.5-9.4 23.8 23.65 52.8 50.95 44.7l5.1-1.5 4.5 3.45c8.85 6.7 22.9 8.75 33.35 4.8l5-1.9 3.8 2.3c2.05 1.25 6.6 3.05 10.1 4 7.25 1.95 12.8 7.7 23.9 24.9 3.15 4.95 5.9 9.15 6 9.3.4.55 15.45-10.8 15.45-11.6 0-.4-1.85-5.85-4.05-12.15-3.8-10.65-3.9-11.5-2.25-12.4 1-.55 4.1-3.25 6.9-6.05 2.8-2.8 7.15-7 9.65-9.35 6.8-6.3 9.2-12 9.35-21.9.1-6.65.55-8.75 2.3-11.2 8.4-11.85 6.15-29.7-5.05-39.7-2.75-2.4-5.1-5.75-6.2-8.6-7.8-20.8-32.75-33.85-55.45-29-4.95 1.05-5.4 1-9.95-1.9C103.4 15.3 92.4 13.6 83.5 16.4zm18.9 12.1c4.7 2 4.55 2.7-1.4 7.4-5.7 4.5-9.3 5.6-15.6 4.65C81.3 39.9 81 40 81 42.2c0 1.25-.3 4-.65 6.05l-.6 3.75h8.5l-.7 4.6c-.4 2.6-.15 7.6.55 11.55 1.4 7.75.25 7.15 9.95 5.25 2.1-.4 2.9-1.05 2.55-2-3.95-10.35-1.9-17.15 8.05-26.7 9.9-9.55 13-10.95 23.85-10.95 17.35 0 30.85 9.75 35.2 25.35 1.3 4.7 2.1 5.9 4.85 7.2 8.6 4.15 13.75 22.3 7.45 26.2-3.5 2.15-16-17.15-16-24.8-.05-7-.75-7.85-6.4-7.5l-5.1.3.35 6.5c.2 3.55.95 8.25 1.65 10.35l1.35 3.8-12.85-.7-12.8-.7-.4 5.4c-.25 2.95-.35 5.45-.3 5.6.1.15 5.75.5 12.6.85 23.95 1.1 35.8 9.15 33.25 22.5-1.2 6.5-6.9 13.65-12.05 15.3-1 .35-2.65 2.1-3.65 3.9-2.15 4-5.7 6.25-11.45 7.2-2.6.4-4.2 1.15-3.95 1.85.25.65 1.7 4.85 3.25 9.4 1.85 5.3.15 6.35-3.15 2.25-7.95-10-12.65-14-16.35-14-1.65 0-4.75-.7-6.95-1.6l-4-1.6 8.25-6.5c11.2-8.95 15.55-10.85 21.45-9.35 2.45.65 4.6 1 4.7.85.7-.9 2.55-7.35 2.55-8.85 0-2.3-8.6-4.45-14.15-3.55-6.05 1-10.9 3.85-24.15 14.25-19.5 15.35-28.15 17.2-39.1 8.2l-3.6-3v-10.4c0-11.85.8-14.35 5.55-16.9L82 99.7l-2.15-3.6c-4.45-7.4-6.25-7.3-13.85 1l-3.5 3.8-10.4-6.5c-11.4-7.1-10.9-7.1-14.9-.35l-2.1 3.5 8.15 5c14 8.5 16.75 11.75 16.75 19.8 0 14.2-31.75 5.45-39.15-10.85-2.35-5.15-2.3-9.95.15-15.3 1.75-3.9 1.8-4.55.5-6.6-6.6-10 .75-25.4 13.6-28.7 2.7-.7 4.9-1.75 4.9-2.35.05-11.45 11.45-20.3 24.95-19.3 6.5.45 7.1.3 8.5-1.85 5.95-9.05 18.95-13.05 28.95-8.9z"
  />
</svg>
